<?xml version="1.0" encoding="UTF-8" standalone="no"?>
<svg
   xmlns:dc="http://purl.org/dc/elements/1.1/"
   xmlns:cc="http://creativecommons.org/ns#"
   xmlns:rdf="http://www.w3.org/1999/02/22-rdf-syntax-ns#"
   xmlns:svg="http://www.w3.org/2000/svg"
   xmlns="http://www.w3.org/2000/svg"
   xmlns:sodipodi="http://sodipodi.sourceforge.net/DTD/sodipodi-0.dtd"
   xmlns:inkscape="http://www.inkscape.org/namespaces/inkscape"
   inkscape:version="1.0beta2 (2b71d25, 2019-12-03)"
   height="74"
   width="77"
   sodipodi:docname="logo.svg"
   xml:space="preserve"
   viewBox="0 0 77 73.999997"
   y="0px"
   x="0px"
   id="Layer"
   version="1.1"><metadata
   id="metadata53"><rdf:RDF><cc:Work
       rdf:about=""><dc:format>image/svg+xml</dc:format><dc:type
         rdf:resource="http://purl.org/dc/dcmitype/StillImage" /><dc:title></dc:title></cc:Work></rdf:RDF></metadata><defs
   id="defs51" /><sodipodi:namedview
   inkscape:current-layer="Layer"
   inkscape:window-maximized="1"
   inkscape:window-y="23"
   inkscape:window-x="0"
   inkscape:cy="59.650002"
   inkscape:cx="57.5"
   inkscape:zoom="5.6328582"
   showgrid="false"
   id="namedview49"
   inkscape:window-height="1035"
   inkscape:window-width="1920"
   inkscape:pageshadow="2"
   inkscape:pageopacity="0"
   guidetolerance="10"
   gridtolerance="10"
   objecttolerance="10"
   borderopacity="1"
   inkscape:document-rotation="0"
   bordercolor="#666666"
   pagecolor="#ffffff" />
<style
   id="style10"
   type="text/css">
	.st0{fill:#5277B5;}
	.st1{fill:#89599C;}
</style>
<g
   transform="translate(-19.05,-22.7)"
   id="g46">
	<g
   id="g20">
		<g
   id="g14">
			<path
   inkscape:connector-curvature="0"
   id="path12"
   d="M 45.3,54.1 32.1,46.5 V 31.2 l 13.2,-7.6 13.2,7.6 v 15.3 z m -10.9,-9 10.9,6.3 10.9,-6.3 V 32.5 L 45.3,26.2 34.4,32.5 Z"
   class="st1" />
		</g>
		<g
   id="g18">
			<path
   inkscape:connector-curvature="0"
   id="path16"
   d="M 69.8,54.1 56.6,46.5 V 31.2 L 69.8,23.6 83,31.2 v 15.3 z m -10.9,-9 10.9,6.3 10.9,-6.3 V 32.5 L 69.8,26.2 58.9,32.5 Z"
   class="st1" />
		</g>
	</g>
	<g
   id="g30">
		<g
   id="g24">
			<path
   inkscape:connector-curvature="0"
   id="path22"
   d="M 45.3,95.8 32.1,88.2 V 72.9 l 13.2,-7.6 13.2,7.6 v 15.3 z m -10.9,-9 10.9,6.3 10.9,-6.3 V 74.2 L 45.3,67.9 34.4,74.2 Z"
   class="st1" />
		</g>
		<g
   id="g28">
			<path
   inkscape:connector-curvature="0"
   id="path26"
   d="M 69.8,95.8 56.6,88.2 V 72.9 L 69.8,65.3 83,72.9 v 15.3 z m -10.9,-9 10.9,6.3 10.9,-6.3 V 74.2 L 69.8,67.9 58.9,74.2 Z"
   class="st1" />
		</g>
	</g>
	<g
   id="g40">
		<g
   id="g34">
			<path
   inkscape:connector-curvature="0"
   id="path32"
   d="M 33.1,75 19.9,67.4 V 52 L 33.1,44.4 46.3,52 V 67.3 Z M 22.2,66 33.1,72.3 44,66 V 53.4 L 33.1,47.1 22.2,53.4 Z"
   class="st0" />
		</g>
		<g
   id="g38">
			<path
   inkscape:connector-curvature="0"
   id="path36"
   d="M 57.6,75 44.4,67.4 V 52 L 57.6,44.4 70.8,52 V 67.3 Z M 46.7,66 57.6,72.3 68.5,66 V 53.4 L 57.6,47.1 46.7,53.4 Z"
   class="st0" />
		</g>
	</g>
	<g
   id="g44">
		<path
   inkscape:connector-curvature="0"
   id="path42"
   d="M 81.9,75 68.7,67.4 V 52 L 81.9,44.4 95.2,52 V 67.3 Z M 71,66 81.9,72.3 92.8,66 V 53.4 L 81.9,47.1 71,53.4 Z"
   class="st0" />
	</g>
</g>
</svg>
